# xmcd
#
# Track frame offsets:
#	150
#	9324
#	18108
#	30427
#	37616
#	45122
#	57890
#	68094
#	77871
#	84685
#	95710
#	106567
#	117593
#	128705
#	139580
#	154094
#	165000
#	180255
#	191793
#	206070
#	217067
#	233909
#	246251
#	257801
#	269117
#	278931
#	292386
#	305514
#	322558
#	332143
#
# Disc length: 4613 seconds
#
# Revision: 1
# Processed by: cddbd v1.5.2PL0 Copyright (c) Steve Scherf et al.
# Submitted via: audiograbber 1.83.01
#
DISCID=9b12031e
DTITLE=The Osborne Brothers - The Osborne Brothers 1956-1968 CD2
DYEAR=1995
DGENRE=Bluegrass
TTITLE0=Big Ben
TTITLE1=Billy In The Lowground
TTITLE2=John Henry Blues
TTITLE3=Banjo Boy Chimes
TTITLE4=Walking Cane
TTITLE5=Red Wing
TTITLE6=Seeing Nellie Home
TTITLE7=Jesse James
TTITLE8=Cumberland Gap
TTITLE9=Lost Indian
TTITLE10=Poor Old Cora
TTITLE11=Five Days Of Heaven
TTITLE12=Ain't Gonna Rain No Mo'
TTITLE13=The Banjo Boys
TTITLE14=Send Me The Pillow That You Dream On
TTITLE15=Worried Man Blues
TTITLE16=May You Never Be Alone
TTITLE17=New Partner Waltz
TTITLE18=How's The World Treating You
TTITLE19=Night Train To Memphis
TTITLE20=Mule Skinner Blues
TTITLE21=White Lightnin'
TTITLE22=Bluegrass Music's Really Gone To Town
TTITLE23=Lovey Told Me Goodbye
TTITLE24=Ballad Of Jed Clampett
TTITLE25=Memories Never Die
TTITLE26=Mule Train
TTITLE27=Ruby Are You Mad
TTITLE28=Sourwood Mountain
TTITLE29=Sweet Thing
EXTD=
EXTT0=
EXTT1=
EXTT2=
EXTT3=
EXTT4=
EXTT5=
EXTT6=
EXTT7=
EXTT8=
EXTT9=
EXTT10=
EXTT11=
EXTT12=
EXTT13=
EXTT14=
EXTT15=
EXTT16=
EXTT17=
EXTT18=
EXTT19=
EXTT20=
EXTT21=
EXTT22=
EXTT23=
EXTT24=
EXTT25=
EXTT26=
EXTT27=
EXTT28=
EXTT29=
PLAYORDER=
